<?xml version="1.0" standalone="no"?>
<!DOCTYPE svg PUBLIC "-//W3C//DTD SVG 20010904//EN"
 "http://www.w3.org/TR/2001/REC-SVG-20010904/DTD/svg10.dtd">
<svg version="1.0" xmlns="http://www.w3.org/2000/svg"
 width="512.000000pt" height="512.000000pt" viewBox="0 0 512.000000 512.000000"
 preserveAspectRatio="xMidYMid meet">

<g transform="translate(0.000000,512.000000) scale(0.100000,-0.100000)"
fill="#000000" stroke="none">
<path d="M4515 4932 c-285 -103 -4188 -1650 -4223 -1674 -52 -36 -107 -116
-123 -181 -15 -61 -7 -142 21 -204 25 -58 98 -135 149 -157 20 -9 445 -126
946 -261 500 -135 913 -249 917 -253 4 -4 115 -410 248 -902 132 -492 248
-915 257 -940 22 -61 102 -143 165 -170 29 -12 78 -25 109 -27 103 -10 219 45
277 130 30 42 1671 4196 1693 4282 25 98 -10 214 -86 291 -93 93 -213 116
-350 66z"/>
</g>
</svg>
